<?xml version="1.0" encoding="utf-8"?>
<!-- Generator: Adobe Illustrator 24.3.0, SVG Export Plug-In . SVG Version: 6.00 Build 0)  -->
<svg version="1.1" id="Layer_1" xmlns="http://www.w3.org/2000/svg" xmlns:xlink="http://www.w3.org/1999/xlink" x="0px" y="0px"
	 viewBox="0 0 512 512" style="enable-background:new 0 0 512 512;" xml:space="preserve">
<style type="text/css">
	.st0{fill:#FFFFFF;}
</style>
<g>
	<path class="st0" d="M511.6,328.5l-4.6-20c-1.6-6.9-7.8-11.7-14.9-11.3l-14.9,0.7c-3.9-5.4-8.5-10.2-13.8-14.3l1.6-13.9
		c0.8-7-3.5-13.6-10.2-15.6l-19.6-6c-6.7-2.1-14,1-17.2,7.2l-6.9,13.3c-6.6,0.7-13.1,2.4-19.3,4.9l-11.2-8.2
		c-5.7-4.2-13.5-3.7-18.7,1.1l-15,14c-5.1,4.8-6.1,12.6-2.4,18.5l8,12.6c-2.7,6-4.5,12.2-5.4,18.7L271.3,241
		c-4.4-5.2-13.2-2-13.2,4.9v73.8c-15.1-12.9-34.1-20.1-54.4-20.6l-26.2-13.7v-3.6c36.3-13.1,62.7-47.1,64.4-87.4h6.1
		c20.4,0,32-24.7,18.7-40.4c3.4-3.6,5.5-8.4,5.5-13.8v-14.7c0-12.7-11.6-20.8-23.5-20.1c-1.6-20-9.8-38.9-23.5-53.9
		c-14.1-15.5-33-25.5-53.6-28.6v-2.9c0-11.1-9-20.1-20.1-20.1h-14.7c-11.1,0-20.1,9-20.1,20.1V23c-12,1.8-23.7,6.1-34,12.4
		c-8.5,5.2-0.1,17.6,7.9,12.8c8-4.9,16.9-8.3,26.1-10v52.5c0,8.2-6.6,14.8-14.8,14.8H54.9c0.9-9,3.4-17.8,7.3-25.8
		c4.3-8.7-9.2-15.3-13.5-6.6c-4.9,10.1-7.9,21.2-8.9,32.4c-11.9-1.2-23.5,7.5-23.5,20.1v14.7c0,5.5,2.2,10.4,5.8,14.1
		c-12.9,15.7-1.3,40.1,19,40.1h6.1c1.7,40.3,28.1,74.3,64.3,87.4v3.6l-26.2,13.7C38.2,300,0,338.7,0,386.1v0.3v118
		c0,9.7,15,9.7,15,0v-118c0-35.7,26-65.5,60.1-71.3l-19.8,45.4c-1.1,2.5-0.7,5.5,1,7.6l18.5,23.5l-19.2,34.1c-1.4,2.5-1.3,5.7,0.4,8
		l53.7,75c5.9,8.2,17.7-1,12.2-8.7L71.1,429l19.3-34.3c1.5-2.7,1.2-5.9-0.6-8.3l-18.9-23.9l14.8-33.8l50.9,175.9
		c0.2,9.7,15.6,9.7,15.8,0l50.9-175.9l14.7,33.8l-18.9,23.9c-1.9,2.4-2.1,5.7-0.6,8.3l19.3,34.3l-50.9,71.1
		c-5.5,7.7,6.3,16.9,12.2,8.7l53.7-75c1.7-2.4,1.9-5.5,0.4-8L214,391.7l18.5-23.5c1.7-2.2,2.1-5.1,1-7.6l-19.9-45.5
		c17.5,2.9,33.2,12,44.4,26.1v163.2c0,4.1,3.4,7.5,7.5,7.5h117.9c9.7,0,9.7-15,0-15H273V266.3L408.2,425c0,0,0,0,0,0l61.2,71.9
		h-47.2c-9.7,0-9.7,15,0,15h63.4c5.7,0,10.1-7.2,5.7-12.4L423,419.3l3.4-6.5c6.6-0.7,13.1-2.4,19.3-4.9l11.2,8.2
		c5.7,4.2,13.5,3.7,18.7-1.1l15-14c5.1-4.8,6.1-12.6,2.4-18.5l-8-12.6c2.7-6.1,4.6-12.5,5.5-19.2l12.8-5.6
		C509.6,342.4,513.2,335.4,511.6,328.5L511.6,328.5z M126.5,285.9c5.8,1.1,11.8,1.7,18,1.7c6.1,0,12.1-0.6,17.9-1.7v2.3l-18,35.8
		l-18-35.8L126.5,285.9z M178.1,360.3l-24.3-21.4l19.4-38.7l19.4,10.1L178.1,360.3z M144.5,350.6l29.1,25.6l-29.3,101.2l-29.2-100.9
		L144.5,350.6z M247.9,179.4h-6v-19.1h6C260.3,160.3,260.3,179.4,247.9,179.4z M214.2,61.7c11.1,12.2,17.9,27.5,19.5,43.8h-47.2
		c-8.2,0-14.8-6.6-14.8-14.8V38.2C188,41.2,202.9,49.4,214.2,61.7L214.2,61.7z M31.3,125.6c0-2.8,2.3-5.1,5.1-5.1h65.7
		c16.4,0,29.8-13.4,29.8-29.8V20.1c0-2.8,2.3-5.1,5.1-5.1h14.7c2.8,0,5.1,2.3,5.1,5.1v70.6c0,16.4,13.4,29.8,29.8,29.8h65.7
		c2.8,0,5.1,2.3,5.1,5.1v14.7c0,2.8-2.3,5.1-5.1,5.1H36.4c-2.8,0-5.1-2.3-5.1-5.1L31.3,125.6z M31.5,169.9c0-5.3,4.3-9.6,9.6-9.6h6
		v19.1h-6C35.8,179.4,31.5,175.2,31.5,169.9z M62.1,190.2v-29.9h164.8v29.9c0,45.4-37,82.4-82.4,82.4S62.1,235.6,62.1,190.2
		L62.1,190.2z M115.8,300.2l19.4,38.7l-24.7,21.7l-14.4-50.1L115.8,300.2z M480.4,338.8c-2.5,1.1-4.2,3.5-4.5,6.3
		c-0.6,7.7-2.7,15.1-6.3,21.9c-1.2,2.4-1.1,5.2,0.3,7.5l10,15.9l-14.6,13.6l-14.4-10.6c-2.2-1.6-5.2-1.9-7.7-0.7
		c-6.8,3.3-14.6,5.2-22.1,5.6c-2.7,0.1-5,1.7-6.3,4l-2.5,4.8l-55-64.6c2.2-1.2,3.8-3.4,4-6c0.6-7.7,2.7-15.1,6.3-21.9
		c1.2-2.4,1.1-5.2-0.3-7.5l-10-15.9l14.6-13.6l14.4,10.6c2.2,1.6,5.2,1.9,7.7,0.7c6.8-3.3,14.6-5.2,22.1-5.6c2.7-0.1,5-1.7,6.3-4
		l8.7-16.7l18.9,5.8l-2,17.9c-0.3,2.8,0.9,5.5,3.2,7c6.4,4.4,11.7,9.9,15.8,16.3c1.4,2.3,4,3.6,6.6,3.5l18.7-0.8l4.4,19.4
		L480.4,338.8z"/>
	<path class="st0" d="M438.8,308.7c-8.5-5.3-18.7-7-28.5-4.7c-20.3,4.7-33,25.1-28.3,45.4c4.6,20.1,25.2,32.9,45.3,28.3
		c20.3-4.7,33-25.1,28.3-45.4C453.3,322.4,447.3,314,438.8,308.7z M423.8,362.9c-12,2.8-24.5-5.1-27.2-17
		c-2.8-12.3,4.9-24.5,17.1-27.4c12-2.8,24.5,5,27.2,17C443.7,347.8,436.1,360.1,423.8,362.9z"/>
	<path class="st0" d="M317.5,196.2l8.6,4.2c0.6,4.1,1.8,8.1,3.3,12l-5,7.2c-3.5,5-2.9,11.7,1.4,16l10.3,10.4c4.3,4.3,11,5,16,1.6
		l7.9-5.4c3.9,1.5,7.9,2.5,12.1,3.1l3.7,7.9c2.4,5.1,9.1,8.2,14.6,6.8l14.2-3.7c5.9-1.5,9.8-7,9.4-13.1l-0.7-9.5
		c3.3-2.6,6.2-5.6,8.8-8.9l8.8,0.7c6.1,0.5,11.6-3.4,13.2-9.2l3.9-14.1c1.6-5.9-1.2-12-6.6-14.7l-8.6-4.2c-0.6-4.1-1.8-8.1-3.3-12
		l5-7.2c3.5-5,2.9-11.7-1.4-16l-10.3-10.4c-4.3-4.3-11-5-16-1.6l-7.9,5.4c-3.9-1.5-7.9-2.5-12.1-3.1l-3.7-7.9
		c-2.6-5.5-8.7-8.4-14.6-6.8l-14.2,3.7c-5.9,1.5-9.8,7-9.4,13.1l0.7,9.5c-3.3,2.6-6.2,5.6-8.8,8.9l-8.8-0.7
		c-6-0.5-11.6,3.4-13.2,9.2l-3.9,14.1C309.3,187.4,312.1,193.5,317.5,196.2L317.5,196.2z M328.7,173.3l11.1,0.9
		c2.7,0.2,5.4-1.1,6.9-3.4c2.8-4.4,6.5-8.1,10.8-11.1c2.2-1.5,3.4-4.1,3.3-6.7l-0.8-11.6l10.4-2.7l4.7,10c1.2,2.5,3.6,4.2,6.4,4.3
		c5.3,0.3,10.3,1.5,15,3.8c2.4,1.1,5.2,0.9,7.4-0.6l9.7-6.5l7.5,7.6l-6.3,9.1c-1.6,2.3-1.8,5.2-0.5,7.7c2.4,4.7,3.8,9.6,4.2,14.8
		c0.2,2.7,1.8,5,4.2,6.2l10.5,5.1l-2.8,10.3l-11.1-0.9c-2.7-0.2-5.4,1.1-6.9,3.4c-2.8,4.4-6.5,8.1-10.8,11.1
		c-2.2,1.5-3.4,4.1-3.3,6.7l0.8,11.6l-10.4,2.7l-4.7-10c-1.2-2.5-3.6-4.2-6.4-4.3c-5.3-0.3-10.3-1.5-15-3.8c-2.5-1.1-5-1-7.4,0.5
		l-9.7,6.5l-7.5-7.6l6.3-9.1c1.6-2.3,1.8-5.2,0.5-7.7c-2.4-4.7-3.8-9.6-4.2-14.8c-0.2-2.7-1.8-5-4.2-6.2l-10.5-5.1L328.7,173.3z"/>
	<path class="st0" d="M372.7,216.4c2.2,0.6,4.5,0.9,6.7,0.9c11.2,0,21.5-7.4,24.7-18.8c1.8-6.6,1-13.5-2.4-19.4
		c-3.4-5.9-8.8-10.2-15.4-12c-13.6-3.7-27.6,4.3-31.4,17.8c-1.8,6.6-1,13.5,2.4,19.4C360.6,210.4,366.1,214.6,372.7,216.4
		L372.7,216.4z M369.3,189.1c1.6-5.6,7.4-8.9,13-7.4c2.7,0.7,5,2.5,6.3,4.9c1.4,2.4,1.7,5.3,1,8c-1.6,5.6-7.4,8.9-13,7.4
		c-2.7-0.7-5-2.5-6.3-4.9C368.9,194.6,368.6,191.8,369.3,189.1L369.3,189.1z"/>
	<path class="st0" d="M416.7,472.6c1.2-2.7,0.8-5.8-1.1-8L306.3,336.1c-2-2.4-5.3-3.3-8.3-2.2c-2.9,1.1-4.9,3.9-4.9,7v128.5
		c0,4.1,3.4,7.5,7.5,7.5h109.4C412.8,476.9,415.5,475.2,416.7,472.6z M308,461.9V361.3l85.6,100.6H308z"/>
</g>
</svg>
