<?xml version="1.0" encoding="utf-8"?>
<!-- Generator: Adobe Illustrator 24.3.0, SVG Export Plug-In . SVG Version: 6.00 Build 0)  -->
<svg version="1.1" id="Слой_1" xmlns="http://www.w3.org/2000/svg" xmlns:xlink="http://www.w3.org/1999/xlink" x="0px" y="0px"
	 viewBox="0 0 383.4 383.3" style="enable-background:new 0 0 383.4 383.3;" xml:space="preserve">
<style type="text/css">
	.st0{fill:#FFFFFF;}
</style>
<path class="st0" d="M0,5.3C2.2,1.3,5.6,0,10.2,0c19.3,0.2,38.7,0.1,58,0.1c10.9,0,11.9,0.9,12.9,12c1.4,0,2.9,0,4.3,0
	c31.4,0,62.9,0.1,94.3,0c14.2-0.1,26.7,4.1,37.8,12.8c10.7,8.4,21.6,16.6,32.3,25c2.4,1.9,4.7,2.8,7.8,2.7
	c30.7-0.1,61.4-0.1,92.1-0.1c13.6,0,21.6,8,21.6,21.6c0,36.6,0,73.1,0,109.7c0,13.4-8,21.5-21.3,21.5c-26.6,0-53.2,0-79.7,0
	c-5.4,0-8.7-2.6-8.9-7c-0.3-4.6,3.3-8,8.7-8c15.2,0,30.4,0,45.7,0c2.6,0,5.2,0,8.2,0c4.2-17.4,14.9-28.3,32.4-32.4
	c0-19.4,0-38.6,0-58c-17.2-4.1-28-14.8-32.3-32.2c-0.9-0.1-1.9-0.2-2.8-0.2c-50,0-100.1,0-150.1,0c-3.3,0-6.2,0.6-8.2,3.5
	c-2.7,3.8-1.7,9.1,2.7,11.6c11.5,6.5,23.1,12.8,34.8,19.3c6.1-7.3,13.5-12.6,22.7-15.2c24.8-7,50,8.6,55.2,34.1
	c4.9,24.3-12.6,48.5-37.5,51.6c-17.1,2.1-30.8-4.2-41.2-17.7c-1.6-2.1-3.1-2.4-5.5-2.6c-7.2-0.5-14.3-1.4-21.5-2.5
	c-19.8-3-39.1-7.6-57.3-16.2c-0.3-0.1-0.7-0.1-1.3-0.2c0,8.3,0,16.4,0,24.6c21.3,8.3,25.7,12.8,32.3,32.6c7.6,0,15.3,0,23.1,0
	c10.5,0,21,0,31.4,0c4.3,0,7.4,2.7,8,6.5c0.5,3.4-1.5,6.8-4.9,8c-1,0.4-2.2,0.5-3.3,0.5c-27.5,0-54.9,0.1-82.4,0
	c-11,0-19.4-8.6-19.4-19.6c-0.1-18.5-0.2-36.9,0.1-55.4c0-4.1-1.1-6.3-4.6-8.6c-4.2-2.7-8.2-3.9-13.5-3c0,2.5,0.1,5.2,0,7.9
	c-0.1,5.2-3,8.2-8.1,8.2c-21.5,0.1-42.9,0-64.4,0.1c-4,0-6.4-2.1-8.3-5.3C0,88.2,0,46.7,0,5.3z M81,103.4c3.1,0,6-0.2,8.8,0.1
	c2.3,0.3,4.8,0.7,6.6,1.9c28,20.2,60.5,27.4,93.8,31.8c7.6,1,13.3-5.5,11.9-12.9c-0.7-3.8-3.3-6.3-6.6-8.1c-12-6.6-24-13.2-36-19.9
	c-10.4-5.8-15.2-16.2-12.4-26.6C150,59,159,52.5,170.9,52.5c17.7,0,35.4,0,53.1,0c1.2,0,2.5,0,4.8,0c-7.5-5.8-14.1-10.8-20.5-15.9
	c-8.3-6.6-17.8-9.7-28.4-9.6c-31.6,0.1-63.1,0-94.7,0c-1.3,0-2.7,0-4.2,0C81,52.5,81,77.7,81,103.4z M15.2,15.2c0,35,0,69.7,0,104.3
	c17,0,33.8,0,50.5,0c0-34.9,0-69.5,0-104.3C48.8,15.2,32.2,15.2,15.2,15.2z M210.7,144.1c6,10.5,19.2,15.9,31.3,12.9
	c12.7-3.1,21.8-14.5,22.1-27.7c0.3-12.4-8.2-24.2-20.2-28c-11.5-3.7-25.2,0.6-31.3,10C219.5,122.6,219,133.6,210.7,144.1z
	 M339.9,67.5c2,8.2,9.2,15.2,16.5,16.3c0-4,0.1-7.9,0-11.9c-0.1-2.7-1.9-4.3-4.6-4.4C347.8,67.4,344,67.5,339.9,67.5z M113.8,173.9
	c0,4-0.3,8,0.2,11.9c0.2,1.6,2.1,3.9,3.4,4.1c4.2,0.5,8.5,0.2,12.9,0.2C128.3,182,121.2,175.1,113.8,173.9z M356.4,173.9
	c-7.7,1.3-15.6,9.3-16.2,16.3c3.9,0,7.7,0.1,11.6,0c2.8-0.1,4.5-1.7,4.6-4.4C356.5,181.9,356.4,177.9,356.4,173.9z"/>
<path class="st0" d="M307.7,383.3c-4.3-2.9-4.8-3.7-5.5-9c-1.4,0-2.9,0-4.4,0c-43.9,0-87.8-0.1-131.7,0c-31.2,0.1-57.6-10.7-79.5-33
	C74,328.5,61,316,48.3,303c-14.1-14.4-8.4-37.6,10.5-43.4c10.2-3.1,19.2-0.5,26.7,7c12,11.9,23.8,23.8,35.7,35.7
	c5.2,5.2,11.2,9.4,17.9,12.2c0.2-4-0.1-7.9,0.6-11.6c2.4-12.2,12.6-20.5,25-20.6c12.3-0.1,24.7-0.3,37,0.1c5.1,0.2,8.5-1.2,11.6-5.4
	c7.6-10.2,17.1-18.1,28.9-23.1c19.9-8.5,39.7-8,60,1c1.8-6.8,7.1-6.3,12.5-6.3c19.6,0.1,39.2,0,58.8,0c7.2,0,9.6,2.5,9.6,9.7
	c0,38.3-0.1,76.6,0.1,114.9c0,4.6-1.3,8-5.3,10.2C354.6,383.3,331.2,383.3,307.7,383.3z M302.5,359.4c0-2.1,0-3.6,0-5.1
	c0-26.7,0-53.4-0.1-80.1c0-1.2-1.3-2.8-2.5-3.5c-20.6-12.5-47.7-10.1-65.7,6.1c-5.3,4.7-9.7,10.4-14.3,15.8c-2.7,3.2-5.7,4.7-10,4.7
	c-14.7-0.2-29.4-0.1-44.2,0c-7.3,0-12.4,5.8-11.5,12.6c0.8,5.8,5.5,9.4,12.4,9.4c25.7,0,51.4,0,77.1,0c1.7,0,3.5,0,5.2,0.5
	c3.4,1,5.1,3.5,5.1,7c0,3.5-1.8,6-5.1,7c-1.6,0.5-3.5,0.4-5.2,0.4c-25.9,0-51.9-0.3-77.8,0.1c-23.1,0.3-42.3-7.6-58.2-24.2
	c-10.6-11.1-21.7-21.7-32.5-32.6c-3.1-3.1-6.7-4.8-11.1-3.8c-4.2,1-7,3.6-8.2,7.8c-1.3,4.6,0.3,8.3,3.5,11.5
	c12.9,12.9,25.8,25.7,38.6,38.6c18.5,18.6,40.9,27.8,67.2,27.8c44.3-0.1,88.6,0,132.9,0C299.4,359.4,300.8,359.4,302.5,359.4z
	 M317.7,263.7c0,35,0,69.7,0,104.3c17,0,33.8,0,50.5,0c0-34.9,0-69.5,0-104.3C351.3,263.7,334.7,263.7,317.7,263.7z"/>
<path class="st0" d="M313.1,121.4c4.1,0.1,7.5,3.7,7.3,7.8c-0.2,4-3.6,7.2-7.6,7.1c-4.2-0.1-7.5-3.6-7.3-7.7
	C305.7,124.7,309.2,121.3,313.1,121.4z"/>
<path class="st0" d="M235.2,190.3c4.1,0.1,7.5,3.7,7.3,7.8c-0.2,4-3.6,7.2-7.6,7.1c-4.2-0.1-7.5-3.6-7.3-7.7
	C227.8,193.5,231.3,190.2,235.2,190.3z"/>
</svg>
