<?xml version="1.0" encoding="utf-8"?>
<!-- Generator: Adobe Illustrator 24.3.0, SVG Export Plug-In . SVG Version: 6.00 Build 0)  -->
<svg version="1.1" id="Слой_1" xmlns="http://www.w3.org/2000/svg" xmlns:xlink="http://www.w3.org/1999/xlink" x="0px" y="0px"
	 viewBox="0 0 373.9 375.5" style="enable-background:new 0 0 373.9 375.5;" xml:space="preserve">
<style type="text/css">
	.st0{fill:#FFFFFF;}
</style>
<path class="st0" d="M191.2,1.2c9.6,2.5,15.5,10.1,22.2,16.4c12.2,11.6,10.2,11.8,27.5,9.1c4.7-0.7,9.4-1.3,14.1-2
	c12.6-1.8,24.2,6,26.8,18.4c1.7,7.9,3,15.9,4.3,23.9c0.8,4.8,3.1,8.2,7.5,10.5c6.5,3.4,13,6.8,19.5,10.3c13,7.1,17.2,20,10.8,33.4
	c-3,6.3-6,12.6-9.2,18.8c-2.7,5.1-2.6,9.9,0.1,14.9c3.3,6.2,6.2,12.5,9.2,18.8c6.3,13.1,2.1,26.1-10.7,33.1
	c-7.1,3.9-14.3,7.6-21.8,11.6c1.2,1.3,2.1,2.3,3,3.2c24.9,24.9,49.7,49.7,74.6,74.6c1.7,1.7,3.2,3.4,4.8,5.1c0,1.2,0,2.5,0,3.7
	c-1.4,2.8-3.8,3.9-6.8,4.6c-14.8,3.3-29.6,6.9-44.4,10.2c-2.5,0.6-3.7,1.6-4.3,4.2c-3.3,15-6.9,29.9-10.3,44.8
	c-0.6,2.8-1.6,5.3-4.6,6.3c-3.1,1-5.2-0.9-7.2-2.9c-28.7-28.7-57.3-57.3-86-86c-1-1-1.6-2.2-2.7-3.6c-6.1,6.7-12.5,11-21,11
	c-8.4,0-14.6-4.2-21.1-11.4c-0.9,1.6-1.5,3.1-2.5,4.1c-28.4,28.5-56.9,57-85.5,85.5c-1.3,1.3-2.8,2.6-4.5,3.3
	c-3.4,1.3-6.5-1.2-7.5-5.7c-3.3-14.1-6.8-28.1-9.6-42.3c-1-5.1-3.1-7.1-8.2-8.1c-14-2.8-27.9-6.3-41.9-9.5c-2.8-0.6-5.8-1.7-5.9-4.8
	c-0.1-2.3,1.2-5.1,2.8-6.8c25.2-25.4,50.5-50.7,75.9-76c1-1,2.4-1.7,4.3-3c-8.5-4.5-15.7-8.2-22.7-12.2c-2.9-1.6-5.8-3.6-7.9-6.1
	c-6.5-7.6-7.7-16.3-3.6-25.5c3.2-7.2,6.8-14.2,10.3-21.2c2.3-4.5,2.3-8.7,0-13.2c-3.4-6.5-6.5-13.2-9.7-19.8
	c-6.2-13-2.1-26,10.5-32.9c6.5-3.5,13-7,19.5-10.3c4.6-2.3,7.2-5.9,7.9-11c1.1-7.1,2.4-14.3,3.7-21.4C93.6,31.1,105,22.9,119.5,25
	c7,1,14.1,1.9,21.1,3c5,0.8,9.3-0.4,13-4.1c3.8-3.8,7.8-7.4,11.5-11.2c4.9-5.1,10.2-9.5,17.1-11.5C185.2,1.2,188.2,1.2,191.2,1.2z
	 M73.3,147.5c-1.2,4-2.1,7.9-3.7,11.5c-3,6.8-6.6,13.4-9.8,20.2c-3.5,7.2-1.4,13.5,5.7,17.3c6.2,3.4,12.5,6.8,18.8,10
	c8.6,4.3,13.3,11.3,14.7,20.7c1.1,7,2.4,14,3.7,21c1.3,7.1,7,11.3,14.1,10.3c7.4-1,14.8-2,22.2-3.2c8.6-1.3,16,0.8,22.3,6.9
	c5.3,5.1,10.6,10.2,15.9,15.3c6.2,5.9,12.6,6,18.8,0.2c5.4-5.1,10.8-10.4,16.1-15.6c6.1-5.9,13.3-8.1,21.6-6.9
	c7.4,1.1,14.8,2.1,22.2,3.2c7.6,1.1,13.3-2.9,14.7-10.4c1.3-7.1,2.6-14.2,3.7-21.4c1.4-9.2,6.1-15.9,14.4-20.1
	c6.5-3.2,12.8-6.7,19.2-10.1c7.1-3.8,9.1-10.1,5.6-17.4c-3.2-6.7-6.5-13.5-9.9-20.1c-3.8-7.7-3.8-15.3,0-23
	c3.3-6.6,6.5-13.2,9.7-19.8c3.6-7.5,1.7-13.7-5.6-17.6c-6.7-3.6-13.4-7.2-20.1-10.7c-7.1-3.7-11.4-9.5-12.9-17.4
	c-1.4-7.6-2.7-15.2-4.1-22.8c-1.5-8.3-7-12.1-15.3-11c-7,1-14.1,1.9-21.1,3c-8.8,1.5-16.2-1-22.6-7.2c-5.3-5.2-10.5-10.3-15.9-15.4
	c-6-5.7-12.6-5.7-18.6,0.1c-5.6,5.3-11.1,10.8-16.7,16.1c-5.9,5.6-12.9,7.7-21,6.4c-7.4-1.1-14.8-2.2-22.2-3.2
	c-7.9-1.1-13.4,2.9-14.8,10.7c-1.3,7-2.6,14-3.7,21c-1.4,9.2-6,15.9-14.4,20.1c-6.5,3.2-12.8,6.7-19.2,10.2
	c-7.1,3.8-9.1,10.1-5.7,17.3c3.2,6.7,6.8,13.4,9.8,20.2C71.2,139.6,72.1,143.5,73.3,147.5z M216.3,274.7
	c27.5,27.5,54.8,54.8,82.3,82.3c0.3-1,0.7-2.3,1-3.6c2.8-12.3,5.7-24.5,8.4-36.8c0.8-3.9,2.8-6.1,6.7-6.9c7.9-1.6,15.8-3.5,23.7-5.4
	c5.8-1.3,11.5-2.7,16.7-4c-23.2-23.2-46.3-46.4-69.5-69.6c-1,5.6-2.1,11.5-3.1,17.5c-2.6,15.6-13.8,23.7-29.5,21.4
	c-6-0.9-12.2-1.3-18.1-2.7C226.5,265.1,220.8,268.7,216.3,274.7z M17.3,299.9c1.3,0.4,2.2,0.7,3.1,1c12.5,2.9,25,6,37.5,8.6
	c4.6,1,6.7,3.3,7.7,7.8c2.7,12.6,5.7,25,8.6,37.5c0.2,0.9,0.6,1.7,0.6,1.7c27.4-27.4,54.8-54.7,82.1-82.1
	c-4.6-6.7-11.2-9.2-19.8-7.2c-5.9,1.4-12.1,1.9-18.1,2.7c-13.9,1.8-24.9-6-27.7-19.7c-0.5-2.2-0.7-4.4-1.1-6.6
	c-0.8-4.4-1.6-8.8-2.5-13.5c-0.8,0.6-1.2,0.7-1.4,1C63.4,253.8,40.7,276.6,17.3,299.9z"/>
<path class="st0" d="M186,223.5c31.8-1.6,55.6-15.3,69-43.5c13.4-28.1,9.7-55.3-9.1-80.2c-3.7-4.9-4.1-8.2-0.9-10.7
	c3.1-2.4,6.3-1.3,10,3.3c22.9,28.3,25.8,68.1,7.3,99.6c-18.6,31.6-55.1,48.3-91.1,41.7c-36.1-6.5-64.8-34.7-70.6-70.9
	c-5.9-36.5,6.3-66.7,36.8-87.5c30.6-20.9,63-20.9,95.3-2.5c1.3,0.7,2.6,1.5,3.7,2.6c2.3,2.2,2.6,4.8,0.8,7.5c-1.7,2.5-4.1,3.1-6.9,2
	c-1-0.4-1.9-1.1-2.9-1.7c-28.4-16.5-57-16.5-83.9,2.2c-26.5,18.5-37.2,45.1-30.9,76.8c6.5,32.2,27.2,51.8,59.1,59.5
	C176.6,222.8,181.7,223,186,223.5z"/>
<path class="st0" d="M174.9,168c9.3-9.8,18.2-19.2,27.2-28.6c5.8-6.1,11.5-12.1,17.3-18.2c3.4-3.6,6.7-4.1,9.4-1.6
	c2.8,2.6,2.6,6-0.8,9.5c-16,16.8-31.9,33.7-47.9,50.5c-3.9,4.1-7,4-10.7-0.2c-8.2-9.2-16.3-18.5-24.4-27.8c-3-3.4-3-6.9-0.2-9.2
	c2.7-2.2,6-1.8,8.8,1.5C160.7,151.7,167.6,159.6,174.9,168z"/>
</svg>
